{
  "accessors": [
    {
      "bufferView": 1,
      "componentType": 5126,
      "count": 216,
      "max": [
        0.20237210392951965,
        0.17129549384117126,
        0.063101053237915039
      ],
      "min": [
        -0.20762850344181061,
        0.071295261383056641,
        -0.036899089813232422
      ],
      "type": "VEC3"
    },
    {
      "bufferView": 1,
      "byteOffset": 2592,
      "componentType": 5126,
      "count": 216,
      "max": [
        0.9659264087677002,
        0.9659264087677002,
        1
      ],
      "min": [
        -0.9659264087677002,
        -0.9659264087677002,
        -1
      ],
      "type": "VEC3"
    },
    {
      "bufferView": 2,
      "componentType": 5126,
      "count": 216,
      "max": [
        0.5232129693031311,
        0.95190179347991943,
        0.90417814254760742,
        -1
      ],
      "min": [
        -0.523215651512146,
        -0.95190167427062988,
        -0.9041791558265686,
        -1
      ],
      "type": "VEC4"
    },
    {
      "bufferView": 0,
      "componentType": 5125,
      "count": 396,
      "max": [
        215
      ],
      "min": [
        0
      ],
      "type": "SCALAR"
    },
    {
      "bufferView": 1,
      "byteOffset": 5184,
      "componentType": 5126,
      "count": 532,
      "max": [
        0.35893088579177856,
        0.29129600524902344,
        0.69310152530670166
      ],
      "min": [
        -0.29074949026107788,
        -0.56877660751342773,
        -1.4168989658355713
      ],
      "type": "VEC3"
    },
    {
      "bufferView": 1,
      "byteOffset": 11568,
      "componentType": 5126,
      "count": 532,
      "max": [
        1,
        1,
        1
      ],
      "min": [
        -1,
        -1,
        -1
      ],
      "type": "VEC3"
    },
    {
      "bufferView": 2,
      "byteOffset": 3456,
      "componentType": 5126,
      "count": 532,
      "max": [
        0.52322149276733398,
        0.95190024375915527,
        0.90417784452438354,
        -1
      ],
      "min": [
        -0.52320659160614014,
        -0.95189923048019409,
        -0.90418034791946411,
        -1
      ],
      "type": "VEC4"
    },
    {
      "bufferView": 0,
      "byteOffset": 1584,
      "componentType": 5125,
      "count": 912,
      "max": [
        531
      ],
      "min": [
        0
      ],
      "type": "SCALAR"
    },
    {
      "bufferView": 1,
      "byteOffset": 17952,
      "componentType": 5126,
      "count": 709,
      "max": [
        0.42237201333045959,
        0.32129669189453125,
        0.72310131788253784
      ],
      "min": [
        -0.34762978553771973,
        -0.59870529174804688,
        -1.4168989658355713
      ],
      "type": "VEC3"
    },
    {
      "bufferView": 1,
      "byteOffset": 26460,
      "componentType": 5126,
      "count": 709,
      "max": [
        1,
        1,
        1
      ],
      "min": [
        -1,
        -1,
        -1
      ],
      "type": "VEC3"
    },
    {
      "bufferView": 2,
      "byteOffset": 11968,
      "componentType": 5126,
      "count": 709,
      "max": [
        0.9983208179473877,
        0.95199626684188843,
        0.90458375215530396,
        1
      ],
      "min": [
        -0.76582324504852295,
        -0.95199704170227051,
        -0.90458637475967407,
        -1
      ],
      "type": "VEC4"
    },
    {
      "bufferView": 0,
      "byteOffset": 5232,
      "componentType": 5125,
      "count": 1152,
      "max": [
        708
      ],
      "min": [
        0
      ],
      "type": "SCALAR"
    }
  ],
  "asset": {
    "generator": "Sketchfab (OSG glTF plugin)",
    "version": "2.0"
  },
  "bufferViews": [
    {
      "buffer": 0,
      "byteLength": 9840,
      "byteOffset": 0,
      "name": "ScalarBufferView",
      "target": 34963
    },
    {
      "buffer": 0,
      "byteLength": 34968,
      "byteOffset": 9840,
      "byteStride": 12,
      "name": "Vec4BufferView",
      "target": 34962
    },
    {
      "buffer": 0,
      "byteLength": 23312,
      "byteOffset": 44808,
      "byteStride": 16,
      "name": "MatrixBufferView",
      "target": 34962
    }
  ],
  "buffers": [
    {
      "byteLength": 68120,
      "uri": "scene.bin"
    }
  ],
  "materials": [
    {
      "doubleSided": true,
      "emissiveFactor": [
        0,
        0,
        0
      ],
      "name": "mat15",
      "pbrMetallicRoughness": {
        "baseColorFactor": [
          0.81000000000000005,
          0.84999999999999998,
          0.85999999999999999,
          1
        ],
        "metallicFactor": 0,
        "roughnessFactor": 1
      }
    },
    {
      "doubleSided": true,
      "emissiveFactor": [
        0,
        0,
        0
      ],
      "name": "mat21",
      "pbrMetallicRoughness": {
        "baseColorFactor": [
          1,
          1,
          1,
          1
        ],
        "metallicFactor": 0,
        "roughnessFactor": 1
      }
    },
    {
      "doubleSided": true,
      "emissiveFactor": [
        0,
        0,
        0
      ],
      "name": "mat8",
      "pbrMetallicRoughness": {
        "baseColorFactor": [
          0.95999999999999996,
          0.26000000000000001,
          0.20999999999999999,
          1
        ],
        "metallicFactor": 0,
        "roughnessFactor": 1
      }
    }
  ],
  "meshes": [
    {
      "name": "mesh50275377:group50275377",
      "primitives": [
        {
          "attributes": {
            "NORMAL": 1,
            "POSITION": 0,
            "TANGENT": 2
          },
          "indices": 3,
          "material": 0,
          "mode": 4
        },
        {
          "attributes": {
            "NORMAL": 5,
            "POSITION": 4,
            "TANGENT": 6
          },
          "indices": 7,
          "material": 1,
          "mode": 4
        },
        {
          "attributes": {
            "NORMAL": 9,
            "POSITION": 8,
            "TANGENT": 10
          },
          "indices": 11,
          "material": 2,
          "mode": 4
        }
      ]
    }
  ],
  "nodes": [
    {
      "children": [
        1
      ],
      "name": "RootNode (gltf orientation matrix)",
      "rotation": [
        -0.70710678118654746,
        -0,
        -0,
        0.70710678118654757
      ]
    },
    {
      "children": [
        2
      ],
      "name": "RootNode (model correction matrix)"
    },
    {
      "children": [
        3
      ],
      "name": "model.obj.cleaner.materialmerger.gles"
    },
    {
      "mesh": 0,
      "name": "mesh50275377:group50275377"
    }
  ],
  "scene": 0,
  "scenes": [
    {
      "name": "OSG_Scene",
      "nodes": [
        0
      ]
    }
  ]
}

